<svg xmlns="http://www.w3.org/2000/svg" width="64" height="64" fill="none" viewBox="0 0 64 64"><path fill="#fff" d="M32 1.06665C14.9333 1.06665 1.06667 14.9333 1.06667 32C1.06667 49.0666 14.9333 62.9333 32 62.9333C49.0667 62.9333 62.9333 49.0666 62.9333 32C62.9333 14.9333 49.0667 1.06665 32 1.06665ZM32 22.4C37.3333 22.4 41.6 26.6666 41.6 32C41.6 37.3333 37.3333 41.6 32 41.6C26.6667 41.6 22.4 37.3333 22.4 32C22.4 26.6666 26.6667 22.4 32 22.4ZM32 60.8C16.4267 60.8 3.84 48.4266 3.2 33.0666H20.2667C20.9067 39.04 25.8133 43.7333 32 43.7333C38.1867 43.7333 43.0933 39.04 43.7333 33.0666H60.8C60.16 48.4266 47.5733 60.8 32 60.8V60.8Z"/><path fill="#fff" d="M32 39.04C35.84 39.04 39.04 35.84 39.04 32C39.04 28.16 35.84 24.96 32 24.96C28.16 24.96 24.96 28.16 24.96 32C24.96 35.84 28.16 39.04 32 39.04ZM32 27.3066C34.56 27.3066 36.9067 29.44 36.9067 32.2133C36.9067 34.9866 34.7733 37.12 32 37.12C29.2267 37.12 27.0933 34.9866 27.0933 32.2133C27.0933 29.44 29.44 27.3066 32 27.3066Z"/></svg>