<svg xmlns="http://www.w3.org/2000/svg" width="48" height="48" fill="none" viewBox="0 0 48 48"><path fill="#fff" d="M24.9296 48H23.0684C22.9955 47.951 22.9112 47.9637 22.8309 47.9598C20.7116 47.8661 18.6355 47.5141 16.6284 46.8281C9.22542 44.2996 4.14938 39.3537 1.39047 32.0411C0.660708 30.1054 0.256153 28.0867 0.086201 26.022C0.0592634 25.6906 0.0832619 25.3542 0 25.0276V22.9193C0.0193449 22.8243 0.0338941 22.7284 0.0435908 22.632C0.130315 20.8652 0.423903 19.1147 0.91833 17.4164C2.45296 12.1573 5.4228 7.8989 9.82784 4.64123C13.1289 2.20239 16.8351 0.740754 20.9017 0.201404C22.5854 -0.0205592 24.2881 -0.0591933 25.9802 0.0861796C27.8217 0.24161 29.6275 0.573065 31.377 1.16488C38.1865 3.46774 43.068 7.89922 46.0213 14.4593C47.0924 16.8379 47.6949 19.3488 47.9118 21.9514C47.9402 22.2907 47.9167 22.6354 48 22.9698V25.0291C47.9853 25.1321 47.9618 25.2351 47.9569 25.3385C47.8693 27.1044 47.5765 28.854 47.0846 30.5521C45.6701 35.4451 42.9819 39.4933 39.02 42.6967C35.2098 45.7655 30.8609 47.5041 25.9733 47.9127C25.6256 47.9421 25.2724 47.9117 24.9296 48ZM8.7043 25.5312H4.00245C3.64295 25.5312 3.64246 25.5312 3.6836 25.8989C3.76487 26.701 3.88946 27.4982 4.05681 28.2868C5.13105 33.1399 7.62891 37.0932 11.5504 40.1466C14.7501 42.6374 18.3975 44.0235 22.4469 44.3349C24.8101 44.5168 27.1488 44.3383 29.4184 43.6646C36.0901 41.6872 40.6769 37.4253 43.1811 30.9345C43.8139 29.2934 44.1548 27.5768 44.3237 25.8269C44.3399 25.6572 44.3644 25.5243 44.0975 25.5248C40.8976 25.5346 37.6977 25.5346 34.4979 25.5248C34.3304 25.5248 34.2677 25.5822 34.2442 25.7362C34.2094 25.9612 34.1692 26.1858 34.1153 26.4069C32.789 31.8494 27.5034 35.2444 21.9968 34.1873C17.7877 33.3792 14.4748 29.9911 13.7612 25.7612C13.7328 25.5925 13.6716 25.5224 13.4806 25.5234C11.8874 25.5351 10.2956 25.5312 8.7043 25.5312ZM16.8037 23.9955C16.8057 27.9495 20.0446 31.1895 23.999 31.1895C27.9535 31.1895 31.1924 27.9534 31.1958 23.9985C31.1992 20.0436 27.9618 16.8099 23.999 16.808C20.0362 16.806 16.8018 20.0426 16.8037 23.9955Z"/></svg>